<svg xmlns="http://www.w3.org/2000/svg" width="38.787" height="30.152" viewBox="0 0 38.787 30.152">
  <path id="Icon_awesome-cc-amex" data-name="Icon awesome-cc-amex" d="M21.88,11.39c0-1.1-.949-1.238-1.844-1.238l-2.632-.02V14.8h1.1V13.106h1.211c1.238,0,.976.693,1,1.689h1.117v-.909c0-.619-.1-1.016-.74-1.238a1.325,1.325,0,0,0,.787-1.259ZM19.9,12.15H18.508v-1.03h1.413c.343,0,.72.067.72.5s-.357.532-.74.532Zm-1.124,6.024H15.23l-1.413,1.535-1.38-1.535H7.961l-.007,4.664h4.4L13.79,21.29l1.373,1.548H17.33l.007-1.568c1.272,0,3.318.31,3.318-1.568,0-1.164-.828-1.528-1.878-1.528Zm-6.986,3.682H9.058v-.929H11.5v-.949H9.058v-.841h2.807l1.2,1.36Zm4.429.552-1.7-1.891,1.7-1.844Zm2.544-2.086H17.337V19.137h1.447c.377,0,.686.155.686.565,0,.431-.31.619-.707.619Zm-2.127-9.2v-.983H12.9V14.8h3.735V13.84H14.019v-.929h2.544v-.949H14.019v-.841Zm22.129,6.165h-.013Zm-13.1,2.147c0-1.1-.949-1.259-1.824-1.259H21.193l-.007,4.664H22.3l.007-1.7H23.5c.74,0,1,.135,1,.929l-.007.774H25.6l.007-.929c0-.6-.121-1.016-.74-1.238a1.332,1.332,0,0,0,.8-1.238Zm-1.965.754H22.311v-1.05h1.413c.343,0,.72.067.72.5,0,.464-.363.552-.74.552ZM12.074,14.8V10.138H10.216L8.89,13.3,7.43,10.138H5.606V14.56L3.715,10.138H2.066l-2,4.664h1.2l.431-1.03H4.024l.431,1.03H6.73V11.154L8.345,14.8h.983l1.615-3.648V14.8ZM2.1,12.8l.754-1.858L3.627,12.8ZM34.23,23.5v-.3c-.727.377-.262.3-10.547.3,0-1.7.007-1.609,0-1.7-.114-.007-.215-.007-.633-.007,0,1.2-.007.458-.007,1.7H20.379c0-.814.007-1.03.007-1.965a4.36,4.36,0,0,1-2.309.417c0,.989-.007.559-.007,1.548H14.779c-.343-.384-.182-.209-1.036-1.171-.215.236-.861.936-1.084,1.171H7.14V17.286h5.593c.337.377.188.209,1.043,1.158.215-.236.821-.9,1.057-1.158h3.9a3.214,3.214,0,0,1,1.635.377v-.377c3.655,0,4.328-.094,5.095.343v-.343H30.73v.35c.767-.464,1.319-.35,4.368-.35v.337c.693-.4,1.117-.35,3.655-.337V5.481A3.231,3.231,0,0,0,35.522,2.25H3.217A3.231,3.231,0,0,0-.014,5.481v7.39c.633-1.474,1.326-3.1,1.555-3.628H4.213c.289.68.108.249.606,1.42V9.243h3.1c.2.417.747,1.615.936,2.019.39-.915.68-1.609.848-2.019H16.63c0-.007.774,0,.781,0,2.941.013,3.607-.054,4.334.357V9.243h2.685v.626A3.219,3.219,0,0,1,26.5,9.243h1.858c0,.034.128.02.155.02H30.69c.283.66.175.4.592,1.386V9.263H34.2c.33.538-.067-.121.754,1.238V9.263h2.685v6.192h-2.8c-.363-.606-.094-.148-.888-1.474v1.474H30.394c-.431-1-.007-.02-.444-1.03H28.671c-.283.673-.148.35-.431,1.03h-1.8a3.129,3.129,0,0,1-2-.6v.6H19.962c-.02-.936-.007-1.669-.007-1.669a4.8,4.8,0,0,0-.66-.013v1.689h-9.12v-.767c-.168.377-.182.4-.343.767H7.847c-.269-.6-.2-.431-.343-.767v.767H3.943c-.283-.68-.148-.357-.431-1.03H2.22c-.283.673-.148.35-.431,1.03H0v13.71A3.231,3.231,0,0,0,3.23,32.4H35.543a3.231,3.231,0,0,0,3.231-3.231V23.087C37.918,23.646,36.572,23.5,34.23,23.5Zm2.443-4.341H38.7v-.983H36.485a1.413,1.413,0,0,0-1.6,1.393c0,2.221,2.874.861,2.874,1.844,0,.343-.289.431-.565.431H35.038l-.007,1h2.154a1.764,1.764,0,0,0,1.514-.6V20.5c-.707-.929-2.645-.087-2.645-.909,0-.39.31-.437.619-.437Zm-3.836,2.679H30.67l-.007,1H32.83c1,0,1.763-.377,1.763-1.481,0-2.234-2.887-.754-2.887-1.77,0-.377.33-.431.619-.431h2.046v-.983H32.137a1.4,1.4,0,0,0-1.582,1.393c0,2.221,2.874.841,2.874,1.844-.007.363-.316.431-.592.431ZM30,19.137v-.962H26.282l-.007,4.664H29.99L30,21.876l-2.6-.02v-.929H29.95v-.949H27.406v-.841Zm-3.789-7.276c-.02.013-.094.148-.094.512,0,.4.061.518.074.532a.53.53,0,0,0,.229.034l.491-1.137c-.074,0-.141-.007-.209-.007C26.322,11.794,26.228,11.841,26.207,11.861Zm1.373-.707h-.007Zm-1.09-1.023c-1.582,0-2.288.808-2.288,2.376,0,1.494.686,2.288,2.221,2.288h1.292l.431-1.03h2.309L30.9,14.8h2.268V11.3l2.1,3.493h1.588V10.151H35.718v3.237l-1.959-3.237h-1.7v4.4l-1.878-4.4H28.509L26.928,13.82h-.5c-.9,0-1.084-.545-1.084-1.339,0-1.6,1.057-1.346,2.228-1.326V10.131Zm2.833.814.754,1.858H28.543Zm-6.8-.808V14.8h1.137V10.138Z" transform="translate(0.014 -2.25)" fill="#bd53c7"/>
</svg>
