<svg xmlns="http://www.w3.org/2000/svg" width="45.248" height="30.165" viewBox="0 0 45.248 30.165">
  <path id="Icon_metro-discover" data-name="Icon metro-discover" d="M8.718,23.035a2.139,2.139,0,0,1-.707,1.65,2.557,2.557,0,0,1-1.748.511H5.929V20.874h.334a2.449,2.449,0,0,1,1.748.53,2.042,2.042,0,0,1,.707,1.63ZM43.6,21.758q0,1.021-1.257,1.021h-.373V20.8h.393q1.237,0,1.237.962ZM10.033,23.035a3.084,3.084,0,0,0-.982-2.366,3.572,3.572,0,0,0-2.533-.913H4.652v6.54H6.518a3.5,3.5,0,0,0,2.337-.746,3.162,3.162,0,0,0,1.178-2.514Zm.589,3.26H11.9v-6.54H10.622Zm6.284-1.983a1.719,1.719,0,0,0-.4-1.218,3.892,3.892,0,0,0-1.483-.825,2.568,2.568,0,0,1-.776-.373.568.568,0,0,1-.206-.452.633.633,0,0,1,.265-.52,1.071,1.071,0,0,1,.678-.206,1.379,1.379,0,0,1,1.041.53l.668-.864a2.775,2.775,0,0,0-1.925-.727,2.071,2.071,0,0,0-1.453.54,1.729,1.729,0,0,0-.589,1.326,1.594,1.594,0,0,0,.354,1.09,2.976,2.976,0,0,0,1.257.717,4.424,4.424,0,0,1,.884.373.747.747,0,0,1,.373.668.877.877,0,0,1-.275.658.976.976,0,0,1-.707.265,1.479,1.479,0,0,1-1.394-.864l-.825.786a2.631,2.631,0,0,0,2.258,1.257,2.265,2.265,0,0,0,1.63-.6,2.059,2.059,0,0,0,.628-1.561Zm5.46,1.767V24.566a2.159,2.159,0,0,1-1.532.727,2.106,2.106,0,0,1-1.581-.638,2.405,2.405,0,0,1,0-3.221,2.007,2.007,0,0,1,1.522-.658,2.233,2.233,0,0,1,1.591.746V20.01a3.486,3.486,0,0,0-1.571-.393,3.388,3.388,0,0,0-2.465.992,3.425,3.425,0,0,0-.01,4.851,3.355,3.355,0,0,0,2.455.992,3.59,3.59,0,0,0,1.591-.373ZM46.561,37.94V27.591q-1.277.786-2.838,1.65t-4.664,2.3q-3.1,1.434-6.471,2.7t-8.2,2.641q-4.831,1.375-9.9,2.317H45.3a1.274,1.274,0,0,0,1.257-1.257ZM29.849,23.074a3.554,3.554,0,1,0-1.041,2.514A3.425,3.425,0,0,0,29.849,23.074Zm2.985,3.4,2.828-6.716H34.267l-1.767,4.4-1.748-4.4H29.358l2.789,6.716h.687Zm3.4-.177h3.614v-1.1H37.508V23.427h2.258v-1.1H37.508V20.874h2.337V19.755H36.231Zm7.679,0h1.571l-2.062-2.749A1.7,1.7,0,0,0,44.912,21.7a1.768,1.768,0,0,0-.609-1.434,2.584,2.584,0,0,0-1.709-.511h-1.9v6.54h1.277V23.683h.177Zm3.908-13.374v24.9a2.556,2.556,0,0,1-.756,1.866,2.484,2.484,0,0,1-1.836.766H5.163a2.484,2.484,0,0,1-1.836-.766,2.556,2.556,0,0,1-.756-1.866v-24.9a2.556,2.556,0,0,1,.756-1.866,2.484,2.484,0,0,1,1.836-.766H45.226a2.484,2.484,0,0,1,1.836.766,2.556,2.556,0,0,1,.756,1.866Z" transform="translate(-2.571 -10.289)" fill="#bd53c7"/>
</svg>
