<svg xmlns="http://www.w3.org/2000/svg" width="32.845" height="32.838" viewBox="0 0 32.845 32.838">
  <path id="Icon_awesome-instagram" data-name="Icon awesome-instagram" d="M16.421,10.237a8.419,8.419,0,1,0,8.419,8.419A8.406,8.406,0,0,0,16.421,10.237Zm0,13.893a5.474,5.474,0,1,1,5.474-5.474A5.484,5.484,0,0,1,16.421,24.13ZM27.148,9.893a1.964,1.964,0,1,1-1.964-1.964A1.959,1.959,0,0,1,27.148,9.893Zm5.576,1.993a9.718,9.718,0,0,0-2.653-6.88,9.782,9.782,0,0,0-6.88-2.653C20.48,2.2,12.354,2.2,9.643,2.353A9.768,9.768,0,0,0,2.763,5,9.75,9.75,0,0,0,.11,11.879c-.154,2.711-.154,10.837,0,13.548a9.718,9.718,0,0,0,2.653,6.88,9.794,9.794,0,0,0,6.88,2.653c2.711.154,10.837.154,13.548,0a9.718,9.718,0,0,0,6.88-2.653,9.782,9.782,0,0,0,2.653-6.88c.154-2.711.154-10.83,0-13.541Zm-3.5,16.45A5.542,5.542,0,0,1,26.1,31.458c-2.162.857-7.291.659-9.68.659s-7.525.191-9.68-.659A5.542,5.542,0,0,1,3.62,28.336c-.857-2.162-.659-7.291-.659-9.68s-.191-7.525.659-9.68A5.542,5.542,0,0,1,6.741,5.856C8.9,5,14.032,5.2,16.421,5.2s7.525-.191,9.68.659a5.542,5.542,0,0,1,3.121,3.121c.857,2.162.659,7.291.659,9.68S30.079,26.182,29.222,28.336Z" transform="translate(0.005 -2.238)" fill="#bd53c7"/>
</svg>
