<svg xmlns="http://www.w3.org/2000/svg" viewBox="0 0 48 47.67"><defs><style>.cls-1{fill:#fff;}.cls-2{fill:none;}</style></defs><g id="Layer_2" data-name="Layer 2"><g id="Layer_1-2" data-name="Layer 1"><g id="logo"><g id="Group_2" data-name="Group 2"><g id="Group_1" data-name="Group 1"><path class="cls-1" d="M18.91,37.08a2.94,2.94,0,0,1-.44,0c-3-.56-4.65-5.68-4-12.77.18-2.16.39-3.88.58-5.3a8.54,8.54,0,0,1-3,1.11,3.38,3.38,0,0,0-2.6,1.52c-.59,1.21.07,3,.37,3.62a1.47,1.47,0,0,1-2.61,1.36c-.18-.35-1.75-3.51-.41-6.26.79-1.64,2.38-2.69,4.7-3.13,2.48-.47,3.69-1.84,3.61-4.07a1.52,1.52,0,0,1,1.24-1.63,1.48,1.48,0,0,1,1.72,1.24l.06.2c.46,1.56.25,3.16-.1,5.8-.2,1.5-.45,3.36-.66,5.79-.5,5.93.85,9.11,1.56,9.57.93-.55,3-4.23,3.7-8.44a45.88,45.88,0,0,0,.84-8,32.37,32.37,0,0,1,.39-4.57c.11-.51.16-.85.19-1.06.2-1.25,1-1.48,1.43-1.5A1.49,1.49,0,0,1,27,11.71a2.59,2.59,0,0,0,.8,1.32h0c.31,0,1-.78,1.42-1.48A1.47,1.47,0,1,1,31.81,13c-.25.44-1.57,2.68-3.51,3a2.82,2.82,0,0,1-1.8-.3c-.05.64-.08,1.34-.11,2.09a48.93,48.93,0,0,1-.89,8.45c-.63,3.77-2.63,8.69-4.88,10.28A3,3,0,0,1,18.91,37.08Z"/><g id="Path_4" data-name="Path 4"><path id="Path_8" data-name="Path 8" class="cls-1" d="M29.53,22.53a4.24,4.24,0,0,1,.41-1.45c0-.07.45,0,.88.22a1,1,0,0,1-.16.74A1.62,1.62,0,0,1,29.53,22.53Z"/><path id="Path_9" data-name="Path 9" class="cls-1" d="M31.06,20.87c.38.22.31.87,0,1.4a1.92,1.92,0,0,1-1.83.7l0,0c-.4-.22,0-1.59.3-2.1S30.67,20.65,31.06,20.87Z"/></g><g id="Path_6" data-name="Path 6"><path id="Path_10" data-name="Path 10" class="cls-1" d="M44.3,34.11a2.33,2.33,0,0,1,.17-1.2,3.26,3.26,0,0,1,1,.51l1,.69.22.16a1.6,1.6,0,0,1,.71,1,.82.82,0,0,1,0,.27,3.06,3.06,0,0,1-.56-.31,5.41,5.41,0,0,1-.47-.31l-.22-.14-.17-.1A2.75,2.75,0,0,0,44.3,34.11Z"/><path id="Path_11" data-name="Path 11" class="cls-1" d="M45.76,32.86c.4.26.83.57,1.25.86,1.21.84,1.2,2.33.58,2.48a1.64,1.64,0,0,1-1-.41l-.68-.45-.17-.1a2.24,2.24,0,0,0-1.38-.49.54.54,0,0,1-.35-.06c-.52-.34-.26-1.79.06-2.26S45,32.37,45.76,32.86Z"/></g><path class="cls-1" d="M29.15,37a2.11,2.11,0,0,1-.83-.16c-.48-.2-1.76-1-1.42-3.64l-.15.27A1.48,1.48,0,0,1,24.2,32c0-.07.92-1.56,1.89-3,1.39-2.1,2.7-4.08,4.3-3.14S31.56,28,30.58,31l-.43,1.32,0,.06c1.57-2.66,2.88-3.18,3.54-3.23A1.47,1.47,0,0,1,34.16,32a6.25,6.25,0,0,0-1.84,2.45C31.19,36.58,30,37,29.15,37Zm4.78-5Zm0,0Z"/><path class="cls-1" d="M37.1,37.07a3.35,3.35,0,0,1-2.87-1.44A7,7,0,0,1,33.13,32a1.47,1.47,0,0,1,.06-2.7,21.26,21.26,0,0,1,1.53-6.16,3.1,3.1,0,0,1,2.93-2.06c1.75.07,3.17,1.76,3.79,3.41a4.78,4.78,0,0,1-2.61,6.13,28.73,28.73,0,0,1-2.79,1,4.71,4.71,0,0,0,.58,2.34c.5.69,2.88-.47,4.16-1.09a11.52,11.52,0,0,1,2.59-1A1.47,1.47,0,0,1,45.09,33a1.45,1.45,0,0,1-1.17,1.71,12.51,12.51,0,0,0-1.86.79A12.43,12.43,0,0,1,37.1,37.07Zm.5-13a1.28,1.28,0,0,0-.21.35,15.63,15.63,0,0,0-1.13,4c.49-.17,1-.35,1.46-.54a1.86,1.86,0,0,0,1-2.36A2.93,2.93,0,0,0,37.6,24Z"/></g></g><g id="Path_7" data-name="Path 7"><path id="Path_12" data-name="Path 12" class="cls-2" d="M18.73.69C31.29-2.44,43,5.39,46.14,18.18A23.66,23.66,0,0,1,29.18,47,23.66,23.66,0,0,1,.66,29.52C-2.53,16.73,6.17,3.82,18.73.69Z"/><path id="Path_13" data-name="Path 13" class="cls-1" d="M19.44,3.55A21.41,21.41,0,0,0,11.9,7.1a22.23,22.23,0,0,0-5.63,6,20.91,20.91,0,0,0-3,7.52,19.32,19.32,0,0,0,.25,8.22,21.11,21.11,0,0,0,3.55,7.53A20.72,20.72,0,0,0,13,41.73a20.19,20.19,0,0,0,27.79-6.52l.29-.48a21.08,21.08,0,0,0,2.25-15.84A21.41,21.41,0,0,0,34.35,5.94a18.39,18.39,0,0,0-7-2.73,19.28,19.28,0,0,0-7.93.34M18.73.69C31.29-2.44,43,5.39,46.14,18.18A23.66,23.66,0,0,1,29.18,47,23.66,23.66,0,0,1,.66,29.52C-2.53,16.73,6.17,3.82,18.73.69Z"/></g></g></g></g></svg>