<svg xmlns="http://www.w3.org/2000/svg" width="50.866" height="30.469" viewBox="0 0 50.866 30.469">
  <path id="Icon_payment-mastercard-alt" data-name="Icon payment-mastercard-alt" d="M55.986,31.584a15.232,15.232,0,0,0-2.015-7.68,17.5,17.5,0,0,0-5.54-5.54,16.173,16.173,0,0,0-7.68-2.015A14.53,14.53,0,0,0,31.56,19.5a15.31,15.31,0,0,1,4.784,7.932H34.959a14.5,14.5,0,0,0-4.406-7.177,14.486,14.486,0,0,0-4.406,7.177H24.761A15.3,15.3,0,0,1,29.545,19.5a14.54,14.54,0,0,0-9.191-3.147,16.164,16.164,0,0,0-7.68,2.015,17.47,17.47,0,0,0-5.54,5.54,15.646,15.646,0,0,0,0,15.36,17.452,17.452,0,0,0,5.54,5.54,16.145,16.145,0,0,0,7.68,2.015,14.531,14.531,0,0,0,9.191-3.147,15.868,15.868,0,0,1-4.659-7.3h1.385a15.322,15.322,0,0,0,4.281,6.547,15.344,15.344,0,0,0,4.281-6.547h1.385a15.906,15.906,0,0,1-4.659,7.3,14.519,14.519,0,0,0,9.191,3.147,16.15,16.15,0,0,0,7.68-2.015,17.476,17.476,0,0,0,5.54-5.54,15.234,15.234,0,0,0,2.015-7.68ZM11.793,27.933h2.392l-1.259,7.3H11.416l.881-5.54-2.015,5.54H9.149v-5.54l-1.007,5.54H6.631l1.259-7.3h2.266v4.533Zm7.05,3.022a5.971,5.971,0,0,1-.126,1.133c-.084.588-.17,1.133-.252,1.637a8.43,8.43,0,0,1-.252,1.133v.378H16.955v-.629a1.823,1.823,0,0,1-1.637.756,1.359,1.359,0,0,1-1.007-.378,2.038,2.038,0,0,1-.378-1.259,1.968,1.968,0,0,1,.629-1.637,3.583,3.583,0,0,1,2.14-.629h.629V31.08c0-.335-.336-.5-1.007-.5a7.072,7.072,0,0,0-1.637.252c.082-.335.168-.756.252-1.259a5.131,5.131,0,0,1,1.763-.378q2.141,0,2.141,1.763Zm-1.762,1.637H16.7c-.84,0-1.259.3-1.259.881,0,.421.168.629.5.629a.852.852,0,0,0,.756-.378A1.539,1.539,0,0,0,17.081,32.591Zm6.169-3.274L23,30.7a3.876,3.876,0,0,0-1.133-.126c-.5,0-.756.169-.756.5a.505.505,0,0,0,.126.378l.5.252a1.863,1.863,0,0,1,1.133,1.637q0,2.015-2.392,2.015a7.438,7.438,0,0,1-1.637-.126c.082-.335.168-.8.252-1.385a6.822,6.822,0,0,0,1.385.252c.586,0,.881-.168.881-.5a.522.522,0,0,0-.126-.378,1.609,1.609,0,0,0-.629-.378,1.7,1.7,0,0,1-1.133-1.637q0-2.012,2.266-2.015a5.866,5.866,0,0,1,1.512.127Zm2.392,0H26.4l-.126,1.511h-.881a4.753,4.753,0,0,1-.126,1.133,3.935,3.935,0,0,1-.063.5.993.993,0,0,1-.189.5v.5a.444.444,0,0,0,.5.5,1.113,1.113,0,0,0,.5-.126l-.252,1.385a3.813,3.813,0,0,1-1.133.126A1.112,1.112,0,0,1,23.376,34.1a5.9,5.9,0,0,1,.252-1.637l.629-4.029h1.511l-.125.882Zm5.666,2.015a7.941,7.941,0,0,1-.126,1.511H28.035a1.215,1.215,0,0,0,.252.881,1.539,1.539,0,0,0,1.133.378,3.336,3.336,0,0,0,1.637-.5l-.252,1.511a4.448,4.448,0,0,1-1.637.252,2.337,2.337,0,0,1-2.644-2.644A3.762,3.762,0,0,1,27.28,30.2a2.281,2.281,0,0,1,1.888-1.007,2.22,2.22,0,0,1,1.637.629,2.065,2.065,0,0,1,.5,1.511Zm-3.148.252h1.763v-.378l-.126-.252a.373.373,0,0,0-.126-.252.355.355,0,0,1-.252-.126h-.252q-.755,0-1.007,1.007Zm7.051-2.266a9.381,9.381,0,0,0-.629,1.763c-.336-.082-.629.126-.881.629a24.786,24.786,0,0,0-.629,3.525H31.435l.126-.378q.5-3.523.756-5.54h1.511L33.7,30.2a1.609,1.609,0,0,1,.756-.756.548.548,0,0,1,.755-.126ZM40.5,28.184l-.252,1.511a3.137,3.137,0,0,0-1.385-.378,1.689,1.689,0,0,0-1.511.756,3.226,3.226,0,0,0-.5,2.015,1.736,1.736,0,0,0,.378,1.259,1.192,1.192,0,0,0,1.007.5,3.139,3.139,0,0,0,1.385-.378l-.252,1.637a3.128,3.128,0,0,1-1.385.252,2.519,2.519,0,0,1-2.015-.881,3.079,3.079,0,0,1-.756-2.266,4.868,4.868,0,0,1,1.007-3.147,2.89,2.89,0,0,1,2.518-1.259,6.063,6.063,0,0,1,1.762.378Zm4.533,2.77a3.953,3.953,0,0,1-.063.5,3.744,3.744,0,0,0-.063.629c-.084.421-.17.988-.252,1.7a8.9,8.9,0,0,1-.252,1.448H43.144v-.629a1.823,1.823,0,0,1-1.637.756,1.359,1.359,0,0,1-1.007-.378,2.038,2.038,0,0,1-.378-1.259,1.969,1.969,0,0,1,.629-1.637,3.378,3.378,0,0,1,2.015-.629H43.4a.518.518,0,0,0,.126-.378c0-.335-.336-.5-1.007-.5a7.072,7.072,0,0,0-1.637.252,4.081,4.081,0,0,1,.252-1.259,5.131,5.131,0,0,1,1.763-.378q2.139,0,2.139,1.763Zm-1.762,1.637h-.378c-.84,0-1.259.3-1.259.881,0,.421.168.629.5.629a.852.852,0,0,0,.756-.378A1.539,1.539,0,0,0,43.269,32.591Zm5.665-3.274a3.354,3.354,0,0,0-.629,1.763c-.336-.082-.629.126-.881.629a25.37,25.37,0,0,0-.629,3.525H45.158l.126-.378q.5-2.752.756-5.54H47.55a2.833,2.833,0,0,1-.126.881,1.609,1.609,0,0,1,.756-.756.9.9,0,0,1,.755-.126Zm3.9-1.385h1.637l-1.259,7.3H51.7l.126-.5a1.676,1.676,0,0,1-1.385.629,1.475,1.475,0,0,1-1.385-.629,3,3,0,0,1-.629-1.763,3.873,3.873,0,0,1,.881-2.644,1.974,1.974,0,0,1,1.763-1.007,2.175,2.175,0,0,1,1.511.756l.252-2.141Zm-.629,3.9c0-.756-.3-1.133-.881-1.133a1.062,1.062,0,0,0-.881.629,2.662,2.662,0,0,0-.252,1.385q0,1.133.756,1.133a1.091,1.091,0,0,0,.881-.5,2.5,2.5,0,0,0,.377-1.511Z" transform="translate(-5.12 -16.35)" fill="#bd53c7"/>
</svg>
