<svg xmlns="http://www.w3.org/2000/svg" width="54" height="14.39" viewBox="0 0 54 14.39">
  <path id="Icon_payment-paypal" data-name="Icon payment-paypal" d="M32.317,23.837H30.3a.584.584,0,0,0-.483.256L27.024,28.2l-1.182-3.947a.585.585,0,0,0-.559-.416H23.3a.35.35,0,0,0-.332.463l2.226,6.535L23.1,33.789a.35.35,0,0,0,.286.552H25.4a.587.587,0,0,0,.48-.251l6.723-9.7a.35.35,0,0,0-.288-.55ZM18.8,27.752a2.243,2.243,0,0,1-2.27,1.921,1.559,1.559,0,0,1-1.666-1.956,2.25,2.25,0,0,1,2.254-1.935,1.694,1.694,0,0,1,1.341.548,1.732,1.732,0,0,1,.341,1.422Zm2.8-3.915H19.594a.35.35,0,0,0-.346.3l-.088.562-.14-.2a2.865,2.865,0,0,0-2.377-.843,4.625,4.625,0,0,0-4.49,4.046,3.8,3.8,0,0,0,.749,3.09,3.146,3.146,0,0,0,2.533,1.022,3.851,3.851,0,0,0,2.785-1.15l-.09.559a.35.35,0,0,0,.346.4h1.811a.583.583,0,0,0,.577-.492l1.088-6.885a.35.35,0,0,0-.346-.4Zm-12.07.048c-.229,1.508-1.381,1.508-2.495,1.508H6.406l.444-2.815a.35.35,0,0,1,.346-.3h.291c.758,0,1.474,0,1.844.431a1.4,1.4,0,0,1,.2,1.171Zm-.484-3.934H4.85a.583.583,0,0,0-.577.493l-1.7,10.77a.35.35,0,0,0,.346.4H4.927a.583.583,0,0,0,.576-.492l.458-2.906a.583.583,0,0,1,.576-.493H7.866c2.767,0,4.364-1.339,4.781-3.993a3.234,3.234,0,0,0-.536-2.71,3.894,3.894,0,0,0-3.061-1.074Zm44.884.3L52.211,31.215a.35.35,0,0,0,.346.4H54.29a.583.583,0,0,0,.576-.493l1.7-10.77a.35.35,0,0,0-.346-.4H54.28a.35.35,0,0,0-.346.3Zm-5.174,7.5a2.243,2.243,0,0,1-2.27,1.921,1.559,1.559,0,0,1-1.666-1.956,2.25,2.25,0,0,1,2.254-1.935,1.694,1.694,0,0,1,1.341.548,1.732,1.732,0,0,1,.341,1.422Zm2.8-3.915H49.552a.35.35,0,0,0-.346.3l-.088.562-.141-.2a2.863,2.863,0,0,0-2.376-.843,4.625,4.625,0,0,0-4.49,4.046,3.8,3.8,0,0,0,.749,3.09,3.147,3.147,0,0,0,2.533,1.022,3.851,3.851,0,0,0,2.785-1.15l-.09.559a.35.35,0,0,0,.346.4h1.811a.583.583,0,0,0,.577-.492l1.088-6.886a.35.35,0,0,0-.346-.4Zm-12.07.048c-.229,1.508-1.381,1.508-2.495,1.508h-.633l.444-2.815a.35.35,0,0,1,.346-.3h.291c.758,0,1.474,0,1.844.431a1.4,1.4,0,0,1,.2,1.171Zm-.484-3.934h-4.2a.583.583,0,0,0-.577.493l-1.7,10.77a.35.35,0,0,0,.346.4h2.155a.409.409,0,0,0,.4-.344l.482-3.054a.583.583,0,0,1,.576-.493h1.329c2.767,0,4.364-1.339,4.781-3.993a3.234,3.234,0,0,0-.536-2.71,3.894,3.894,0,0,0-3.061-1.074Z" transform="translate(-2.571 -19.952)" fill="#bd53c7"/>
</svg>
