<svg xmlns="http://www.w3.org/2000/svg" width="46.949" height="14.39" viewBox="0 0 46.949 14.39">
  <path id="Icon_simple-visa" data-name="Icon simple-visa" d="M34.126,13.072a9.764,9.764,0,0,0-3.4-.589c-3.756,0-6.407,1.894-6.426,4.607-.023,2,1.886,3.118,3.328,3.787,1.481.685,1.976,1.115,1.972,1.731-.01.933-1.184,1.356-2.273,1.356a8.041,8.041,0,0,1-3.582-.734l-.468-.217-.53,3.126A12.712,12.712,0,0,0,27,26.873c3.993,0,6.6-1.88,6.634-4.771.031-1.59-1-2.8-3.171-3.791-1.318-.646-2.14-1.078-2.14-1.733,0-.579.7-1.2,2.169-1.2a6.964,6.964,0,0,1,2.846.534l.352.158.53-3.02-.092.02Zm9.748-.333H40.94a1.9,1.9,0,0,0-2,1.156L33.3,26.677h3.993l.8-2.093,4.871,0c.119.489.469,2.089.469,2.089h3.519ZM18.9,12.622h3.8L20.321,26.568h-3.8L18.9,12.618ZM9.235,20.308l.4,1.937,3.719-9.505h4.028L11.389,26.658H7.371L4.085,14.87a.778.778,0,0,0-.352-.464A16.063,16.063,0,0,0,0,13.023l.049-.293H6.174A1.592,1.592,0,0,1,7.9,13.911l1.334,6.4ZM39.181,21.73l1.516-3.9c-.02.039.313-.806.5-1.33l.26,1.2.878,4.024H39.181v0Z" transform="translate(0 -12.483)" fill="#bd53c7"/>
</svg>
