<svg xmlns="http://www.w3.org/2000/svg" width="46.361" height="32.597" viewBox="0 0 46.361 32.597">
  <path id="Icon_awesome-youtube" data-name="Icon awesome-youtube" d="M46.442,9.6a5.825,5.825,0,0,0-4.1-4.125C38.728,4.5,24.23,4.5,24.23,4.5s-14.5,0-18.113.975A5.825,5.825,0,0,0,2.019,9.6C1.05,13.239,1.05,20.832,1.05,20.832s0,7.592.969,11.231a5.738,5.738,0,0,0,4.1,4.059c3.615.975,18.113.975,18.113.975s14.5,0,18.113-.975a5.738,5.738,0,0,0,4.1-4.059c.969-3.639.969-11.231.969-11.231s0-7.592-.969-11.231ZM19.489,27.725V13.938l12.117,6.893L19.489,27.725Z" transform="translate(-1.05 -4.5)" fill="#bd53c7"/>
</svg>
